<svg xmlns="http://www.w3.org/2000/svg" width="138" height="127" fill="none" viewBox="0 0 138 127"><path fill="#000" fill-rule="evenodd" d="M136.69 125.794c-.636.637-1.338.955-2.23.955s-1.593-.318-2.23-.955c-.637-.638-.892-1.338-.892-2.231s.318-1.593.892-2.23c.637-.638 1.338-.893 2.23-.893s1.594.32 2.23.893c.637.637.957 1.338.957 2.23 0 .828-.32 1.593-.957 2.231m-4.142-4.143q-.765.765-.765 1.912t.765 1.911c.51.51 1.148.83 1.912.83s1.402-.255 1.912-.83q.765-.764.765-1.911t-.765-1.912q-.766-.764-1.912-.764-1.052-.096-1.912.764m1.912.127v.065h-1.274v3.441h.637v-1.338h.446c.318 0 .573.063.7.127.192.128.32.383.32.765v.446h.573v-.765c0-.128-.063-.318-.191-.51-.127-.191-.319-.255-.574-.318.192-.065.383-.128.51-.192.192-.191.319-.383.319-.701 0-.445-.127-.765-.51-.892a3.1 3.1 0 0 0-.956-.128m.637.575c-.128-.065-.382-.128-.765-.128h-.509v1.211h.573c.256 0 .446 0 .573-.065.255-.063.383-.255.383-.509s-.128-.382-.255-.509" clip-rule="evenodd"/><path fill="#040300" fill-rule="evenodd" d="M113.686 0h-89.28C10.962 0 0 10.643 0 23.642v79.338c0 13.191 10.578 23.579 24.152 23.579h89.343c13.573 0 24.152-10.388 24.152-23.579V23.642C137.647 10.387 127.132 0 113.686 0m21.22 102.98c0 11.726-9.431 20.838-21.475 20.838h-89.28c-12.043.063-21.41-9.112-21.41-20.838V23.642c0-11.726 9.494-20.966 21.666-20.966h89.342c11.917 0 21.22 9.177 21.22 20.966v79.338z" clip-rule="evenodd"/><path fill="#ffab00" fill-rule="evenodd" d="M134.906 102.98c0 11.726-9.431 20.838-21.475 20.838h-89.28c-12.043.063-21.41-9.112-21.41-20.838V23.642c0-11.726 9.495-20.966 21.666-20.966h89.342c11.917 0 21.22 9.177 21.22 20.966v79.338z" clip-rule="evenodd"/><path fill="#fff" fill-rule="evenodd" d="M110.245 77.809H98.837l-1.975-12.427-7.328 12.299H78l7.01 7.392L79.275 97.5l12.618-7.52 9.878 7.648-1.848-12.554z" clip-rule="evenodd"/><path fill="#040300" fill-rule="evenodd" d="M118.21 75.323h-17.27L98.2 58.118 88.133 75.196H86.22c-1.148-1.976-1.594-4.844-1.594-6.627 0-2.932.191-5.8.191-9.56 0-4.97-1.465-7.583-5.353-8.538v-.128c8.221-1.147 11.98-6.628 11.98-14.275 0-10.896-7.264-13.254-16.76-13.254H49.133L38.298 74.048h13.574l3.95-18.67h9.05c4.844 0 6.82 2.357 6.82 6.881 0 3.442-.383 6.182-.383 8.795 0 .956.19 3.249.891 4.142l9.814 10.387-8.475 18.162 18.098-10.77 13.509 10.388-2.485-17.142zM68.951 45.818H58.118l2.611-12.362H70.8c3.568 0 7.328.956 7.328 5.29 0 5.543-4.27 7.072-9.176 7.072M91.892 89.98l-12.618 7.519 5.8-12.363-7.01-7.392h11.533l7.265-12.299 1.975 12.427h11.471l-10.323 7.201 1.848 12.618z" clip-rule="evenodd"/></svg>