<svg xmlns="http://www.w3.org/2000/svg" width="48" height="48" fill="none" viewBox="0 0 48 48"><circle cx="24" cy="24" r="24" fill="#5a5a5a"/><mask id="a" width="24" height="24" x="12" y="12" maskUnits="userSpaceOnUse" style="mask-type:alpha"><path fill="#d9d9d9" d="M12 12h24v24H12z"/></mask><g mask="url(#a)"><path fill="#f6f6f6" d="M24 24q-1.65 0-2.825-1.175T20 20t1.175-2.825T24 16t2.825 1.175T28 20t-1.175 2.825T24 24m-8 8v-2.8q0-.85.438-1.562.437-.713 1.162-1.088a14.8 14.8 0 0 1 3.15-1.163A13.8 13.8 0 0 1 24 25q1.65 0 3.25.387 1.6.388 3.15 1.163.724.376 1.163 1.087Q32 28.35 32 29.2V32zm2-2h12v-.8a.973.973 0 0 0-.5-.85q-1.35-.675-2.725-1.012a11.6 11.6 0 0 0-5.55 0q-1.375.337-2.725 1.012a.97.97 0 0 0-.5.85zm6-8q.824 0 1.413-.587Q26 20.825 26 20q0-.824-.587-1.413A1.93 1.93 0 0 0 24 18q-.824 0-1.413.587A1.93 1.93 0 0 0 22 20q0 .824.587 1.413Q23.176 22 24 22"/></g></svg>