<svg xmlns="http://www.w3.org/2000/svg" width="48" height="48" fill="none" viewBox="0 0 48 48"><circle cx="24" cy="24" r="24" fill="#5a5a5a"/><mask id="a" width="24" height="24" x="12" y="12" maskUnits="userSpaceOnUse" style="mask-type:alpha"><path fill="#d9d9d9" d="M12 12h24v24H12z"/></mask><g mask="url(#a)"><path fill="#f6f6f6" d="m31.6 33-6.3-6.3q-.75.6-1.725.95T21.5 28q-2.725 0-4.613-1.887Q15 24.225 15 21.5t1.887-4.613Q18.776 15 21.5 15t4.613 1.887Q28 18.776 28 21.5a6.1 6.1 0 0 1-1.3 3.8l6.3 6.3zm-10.1-7q1.875 0 3.188-1.312Q26 23.375 26 21.5t-1.312-3.187T21.5 17t-3.187 1.313T17 21.5t1.313 3.188T21.5 26"/></g></svg>