<svg xmlns="http://www.w3.org/2000/svg" width="53" height="54" fill="none" viewBox="0 0 53 54"><path fill="#fff" fill-rule="evenodd" d="M53 35.036H41.546l-1.817-11.48-6.678 11.395h-1.267c-.761-1.318-1.057-3.232-1.057-4.422 0-1.956.127-3.87.127-6.378 0-3.316-.972-5.06-3.551-5.697v-.085c5.453-.766 7.946-4.423 7.946-9.525C35.249 1.574 30.43 0 24.133 0H7.186L0 34.185h9.002l2.62-12.457h6.003c3.212 0 4.522 1.573 4.522 4.591 0 2.297-.253 4.125-.253 5.868 0 .638.126 2.168.59 2.764l6.51 6.93L23.373 54l12.003-7.186 8.96 6.93-1.649-11.437zM20.33 15.349h-7.185l1.732-8.248h6.679c2.366 0 4.86.638 4.86 3.529 0 3.7-2.832 4.72-6.086 4.72m15.215 29.466-8.369 5.018 3.847-8.25-4.65-4.931h7.65l4.818-8.207 1.31 8.291h7.608l-6.847 4.806 1.226 8.419z" clip-rule="evenodd"/></svg>