<svg xmlns="http://www.w3.org/2000/svg" width="24" height="24" fill="none" viewBox="0 0 24 24"><path fill="#f6f6f6" d="M7.539 22.5c9.057 0 14.012-7.504 14.012-14 0-.21 0-.424-.01-.634A10 10 0 0 0 24 5.313a10 10 0 0 1-2.834.777 4.95 4.95 0 0 0 2.171-2.725 9.8 9.8 0 0 1-3.13 1.19 4.929 4.929 0 0 0-8.394 4.49A13.99 13.99 0 0 1 1.662 3.902a4.934 4.934 0 0 0 1.527 6.573A5 5 0 0 1 .96 9.863v.067a4.93 4.93 0 0 0 3.948 4.827c-.423.117-.86.175-1.298.173q-.465 0-.92-.086a4.925 4.925 0 0 0 4.6 3.416 9.88 9.88 0 0 1-6.12 2.11A10 10 0 0 1 0 20.303 14 14 0 0 0 7.539 22.5"/></svg>