<svg xmlns="http://www.w3.org/2000/svg" width="24" height="24" fill="none" viewBox="0 0 24 24"><path fill="#f6f6f6" d="M12.077 2.999h.133c1.233.004 7.48.049 9.165.502a3.02 3.02 0 0 1 2.122 2.13c.152.57.259 1.325.33 2.103l.015.156.034.39.011.156c.098 1.371.11 2.655.111 2.935v.113a48 48 0 0 1-.123 3.09l-.012.158-.013.155c-.075.858-.186 1.71-.353 2.337a3.01 3.01 0 0 1-2.122 2.13c-1.74.469-8.353.502-9.27.503h-.213c-.463 0-2.38-.009-4.39-.078l-.255-.009-.131-.006-.256-.01-.257-.011c-1.665-.073-3.25-.192-3.981-.39A3.01 3.01 0 0 1 .5 17.224C.333 16.6.222 15.746.147 14.888l-.012-.157-.012-.156A47 47 0 0 1 0 11.52v-.184c.003-.323.015-1.437.096-2.667l.01-.155.005-.078.012-.156.033-.39.015-.156c.072-.778.178-1.534.33-2.103a3.01 3.01 0 0 1 2.123-2.13c.73-.195 2.315-.315 3.98-.39l.255-.01.258-.01.13-.004.256-.01A150 150 0 0 1 11.787 3h.29zM9.6 7.814v7.227l6.236-3.613z"/></svg>